<svg width="152" height="32" viewBox="0 0 152 32" fill="none" xmlns="http://www.w3.org/2000/svg">
<g id="BigSpring">
<g id="Group 25">
<path id="Path 657" d="M19.1487 12.9406C19.9647 13.4986 20.7966 14.0256 21.5696 14.6566C22.4763 15.4788 23.1715 16.5074 23.5965 17.6552C24.0214 18.803 24.1637 20.0364 24.011 21.2508C23.8584 22.4652 23.4153 23.6249 22.7195 24.6319C22.0237 25.6388 21.0954 26.4633 20.0135 27.0356C18.1231 27.9463 16.0466 28.4044 13.9485 28.3736C9.68352 28.3986 5.41772 28.3736 1.14872 28.3926C0.619717 28.3926 0.433803 28.2756 0.436803 27.7086C0.457803 22.7646 0.436428 17.8206 0.452428 12.8766C0.437961 11.948 0.791937 11.0515 1.4368 10.3832C2.08167 9.71495 2.96533 9.32927 3.89383 9.31061C4.58583 9.21661 5.29384 9.2556 5.97684 9.1106C9.4365 9.56374 12.8354 10.3968 16.1126 11.5946C16.8459 11.8653 17.5771 12.1382 18.3064 12.4136C18.6418 12.481 18.9415 12.6684 19.1487 12.9406Z" fill="#00DCC0"/>
<path id="Path 658" d="M19.1488 12.9406C16.5897 11.9164 13.9691 11.0527 11.3026 10.3546C9.57857 9.9776 7.86758 9.5366 6.11458 9.3126C5.88158 9.1436 5.5058 9.38164 5.3348 9.03764C4.6058 8.83764 3.87476 8.63762 3.14876 8.42662C2.37622 8.24142 1.69063 7.7971 1.20589 7.16771C0.721149 6.53831 0.466468 5.76185 0.484698 4.96763C0.422698 3.63663 0.463983 2.30163 0.451983 0.967633C0.451983 0.698633 0.480565 0.521608 0.823565 0.528608C5.94657 0.628608 11.0747 0.312633 16.1927 0.717633C17.1059 0.795563 18.002 1.01344 18.849 1.36363C22.019 2.65263 22.863 5.43862 22.515 8.33262C22.3978 9.32542 22.026 10.2712 21.4364 11.0784C20.8467 11.8857 20.0589 12.5271 19.1488 12.9406Z" fill="#125EEC"/>
<path id="Path 659" d="M79.8705 4.43975C80.9131 4.46012 81.9387 4.70805 82.8754 5.16613C83.8121 5.62421 84.6377 6.28143 85.2939 7.09179C85.7987 7.75838 86.1536 8.52624 86.3339 9.34277C86.4339 9.73677 86.3205 9.89174 85.9145 9.97674C85.0442 10.1495 84.1845 10.3706 83.3388 10.6388C82.8628 10.7948 82.7288 10.6388 82.5468 10.2388C82.3216 9.76011 82.0026 9.33151 81.6088 8.97826C81.215 8.62502 80.7545 8.35429 80.2543 8.18218C79.7541 8.01007 79.2244 7.94002 78.6967 7.97619C78.1689 8.01236 77.6536 8.15401 77.1816 8.39275C76.871 8.53664 76.6101 8.76955 76.432 9.06188C76.254 9.35421 76.1669 9.69282 76.1816 10.0348C76.1872 10.3641 76.2954 10.6835 76.4911 10.9484C76.6869 11.2133 76.9607 11.4106 77.2738 11.5127C79.2738 12.4227 81.4328 12.8968 83.4008 13.8658C84.7032 14.3703 85.7924 15.3074 86.4858 16.5198C87.1194 17.8886 87.1935 19.4506 86.6928 20.8735C86.1921 22.2963 85.1559 23.4675 83.8046 24.1377C82.3307 24.9533 80.6494 25.3173 78.9701 25.1844C77.2909 25.0516 75.6881 24.4278 74.3608 23.3907C73.6177 22.8072 73.003 22.0764 72.5556 21.2443C72.1082 20.4121 71.8376 19.4964 71.7607 18.5547C71.7147 18.2217 71.7736 18.0288 72.1606 17.9548C73.1856 17.7548 74.2107 17.5548 75.2167 17.2778C75.6757 17.1538 75.7454 17.3318 75.8114 17.6958C75.8833 18.1324 75.9938 18.5617 76.1415 18.9788C76.9585 21.1678 78.2897 21.9237 80.5917 21.5127C81.0568 21.4465 81.5108 21.317 81.9408 21.1277C82.3116 20.9908 82.6308 20.7431 82.8559 20.4182C83.0809 20.0933 83.2008 19.707 83.1986 19.3118C83.2214 18.9047 83.1249 18.4998 82.9208 18.1468C82.7167 17.7939 82.4139 17.5081 82.0497 17.3248C80.784 16.6477 79.4435 16.1208 78.0556 15.7548C76.7809 15.3734 75.5725 14.7984 74.4726 14.0498C71.6976 12.2588 71.7726 7.9388 74.4526 5.9118C75.7896 4.8908 77.2555 4.40475 79.8705 4.43975Z" fill="#101419"/>
<path id="Path 660" d="M125.754 11.2388C127.675 9.28777 129.799 8.78273 132.16 9.79273C133.078 10.1685 133.857 10.8186 134.39 11.654C134.924 12.4894 135.187 13.4693 135.142 14.4597C135.2 17.6997 135.149 20.9427 135.164 24.1837C135.164 24.5927 135.058 24.7287 134.641 24.7147C133.779 24.6847 132.914 24.6787 132.053 24.7147C131.585 24.7357 131.5 24.5618 131.502 24.1348C131.52 21.4168 131.512 18.6978 131.511 15.9788C131.511 15.7698 131.519 15.5597 131.502 15.3527C131.348 13.5747 130.495 12.6658 129.038 12.7208C126.951 12.7998 125.938 13.7317 125.929 15.6207C125.917 18.4207 125.913 21.2147 125.94 24.0117C125.94 24.5367 125.849 24.7487 125.272 24.7117C124.412 24.6587 123.545 24.6767 122.683 24.7117C122.262 24.7267 122.16 24.5807 122.161 24.1757C122.175 19.5491 122.175 14.9224 122.161 10.2957C122.161 9.89572 122.261 9.74072 122.685 9.75672C123.442 9.79996 124.202 9.79797 124.959 9.75074C125.607 9.69774 125.877 9.88573 125.759 10.5507C125.74 10.7796 125.739 11.0096 125.754 11.2388Z" fill="#101419"/>
<path id="Path 661" d="M108.982 11.2628C110.082 9.68877 111.342 9.06272 113.031 9.44972C113.426 9.53872 113.54 9.69075 113.462 10.0917C113.297 10.9357 113.156 11.7918 113.051 12.6408C113.004 13.0338 112.917 13.1618 112.478 13.0968C110.378 12.7878 109.311 13.6528 109.254 15.8098C109.183 18.5248 109.193 21.2428 109.22 23.9587C109.226 24.5918 109.039 24.7588 108.437 24.7188C107.604 24.6678 106.764 24.6917 105.928 24.7127C105.588 24.7217 105.484 24.6208 105.484 24.2738C105.494 19.5458 105.494 14.8174 105.484 10.0888C105.484 9.71875 105.584 9.58872 105.963 9.60072C106.746 9.62772 107.533 9.64672 108.314 9.60072C108.873 9.56472 109.067 9.74572 108.989 10.2907C108.967 10.6143 108.965 10.9389 108.982 11.2628Z" fill="#101419"/>
<path id="Path 662" d="M52.8928 17.3135C52.8928 19.5625 52.8791 21.8135 52.9041 24.0605C52.9091 24.5505 52.8117 24.7495 52.2717 24.7185C51.4117 24.6695 50.5458 24.6866 49.6838 24.7185C49.2738 24.7315 49.1521 24.6046 49.1531 24.1896C49.1671 19.5609 49.1671 14.9325 49.1531 10.3045C49.1531 9.90455 49.253 9.75053 49.677 9.76353C50.566 9.79053 51.457 9.79653 52.344 9.76353C52.803 9.74553 52.9036 9.90954 52.9006 10.3385C52.8826 12.6585 52.8928 14.9855 52.8928 17.3135Z" fill="#101419"/>
<path id="Path 663" d="M118.886 17.2646C118.886 19.5136 118.869 21.7646 118.898 24.0126C118.904 24.5326 118.813 24.7566 118.231 24.7186C117.397 24.6646 116.558 24.6866 115.721 24.7126C115.328 24.7246 115.179 24.6306 115.182 24.2016C115.202 19.5723 115.208 14.9426 115.198 10.3126C115.198 9.85856 115.342 9.74059 115.775 9.75659C116.611 9.78859 117.45 9.79459 118.285 9.75659C118.766 9.73359 118.903 9.86857 118.897 10.3566C118.869 12.6606 118.886 14.9626 118.886 17.2646Z" fill="#101419"/>
<path id="Path 664" d="M51.0652 7.4655C49.1652 7.4655 49.1653 7.46552 49.1653 5.57652C49.1653 4.01152 49.1652 4.00647 50.7712 4.01347C51.4462 4.01347 52.3184 3.79348 52.7444 4.12748C53.1974 4.48448 52.8784 5.39652 52.8904 6.06352C52.9144 7.46352 52.8972 7.46348 51.4622 7.46348L51.0652 7.4655Z" fill="#11151A"/>
<path id="Path 665" d="M117.11 4.01172C118.886 4.01172 118.886 4.01172 118.885 5.79572C118.885 7.46572 118.885 7.48072 117.247 7.45972C116.578 7.45072 115.688 7.75973 115.303 7.31873C114.976 6.94473 115.203 6.07771 115.203 5.42871C115.203 4.01271 115.203 4.0127 116.64 4.0127L117.11 4.01172Z" fill="#101419"/>
<path id="Path 666" d="M5.33423 9.0376C5.58423 9.1556 5.8965 9.10162 6.1145 9.31262H3.89819C4.33019 8.97762 4.89423 9.3366 5.33423 9.0376Z" fill="#59D4DC"/>
<path id="Path 667" d="M43.9271 13.9486C44.4223 13.6106 44.8609 13.1966 45.2269 12.7216C45.6965 12.0387 45.9735 11.2419 46.0291 10.4149C46.0847 9.58797 45.9167 8.7613 45.5428 8.02162C45.1816 7.1569 44.5858 6.41047 43.8226 5.86672C43.0593 5.32296 42.1592 5.00359 41.2239 4.94466C38.2239 4.68566 35.2138 4.89663 32.2088 4.83663C31.6918 4.82663 31.6907 5.07862 31.6917 5.45662C31.7004 8.67195 31.7024 11.887 31.6971 15.1016C31.6971 18.1076 31.6986 21.1136 31.702 24.1196C31.702 24.3646 31.542 24.7196 32.057 24.7116C35.295 24.6306 38.5448 24.9616 41.7708 24.5286C42.9592 24.3813 44.0707 23.862 44.9461 23.045C45.8215 22.228 46.416 21.155 46.6448 19.9796C47.1718 17.2786 46.3461 15.4406 43.9271 13.9486ZM36.1561 8.34865C37.4111 8.36865 38.6677 8.33562 39.9227 8.36562C40.2248 8.33955 40.5292 8.3788 40.8148 8.48073C41.1004 8.58266 41.3606 8.74486 41.5779 8.95632C41.7953 9.16777 41.9648 9.42357 42.0745 9.70625C42.1843 9.98894 42.2315 10.2919 42.2137 10.5946C42.2295 10.8964 42.1801 11.1979 42.0687 11.4788C41.9573 11.7596 41.7865 12.0132 41.5682 12.222C41.3498 12.4308 41.0891 12.5901 40.8035 12.6889C40.518 12.7877 40.2146 12.8238 39.9139 12.7946C39.3139 12.8126 38.7141 12.7946 38.1141 12.7946C37.4601 12.7946 36.8051 12.7736 36.1531 12.8026C35.7531 12.8206 35.6041 12.7206 35.6151 12.2906C35.6451 11.1406 35.6471 9.99062 35.6151 8.83962C35.5941 8.39862 35.7791 8.34161 36.1561 8.34761V8.34865ZM40.7698 20.9636C39.9918 21.0186 39.2071 20.9736 38.4241 20.9736V21.0146C37.6671 21.0146 36.9101 21.0006 36.1541 21.0206C35.7821 21.0306 35.5948 20.9696 35.6058 20.5206C35.6368 19.1386 35.6278 17.7556 35.6058 16.3736C35.6058 16.0076 35.6969 15.8736 36.0819 15.8836C37.6209 15.9086 39.162 15.8686 40.7 15.9156C41.0078 15.9135 41.3127 15.9733 41.597 16.0913C41.8813 16.2093 42.1394 16.3831 42.3553 16.6026C42.5712 16.822 42.7405 17.0825 42.8538 17.3687C42.9672 17.6549 43.0221 17.9609 43.015 18.2686C43.04 19.9596 42.3178 20.8546 40.7698 20.9676V20.9636Z" fill="#101419"/>
<path id="Path 668" d="M151.531 9.89473C151.131 9.55373 150.244 9.77373 149.571 9.76973C148.183 9.76073 148.184 9.76977 147.983 11.0858C147.694 10.7929 147.389 10.5168 147.069 10.2587C145.933 9.55346 144.596 9.24093 143.265 9.36921C141.934 9.4975 140.683 10.0595 139.702 10.9688C136.582 13.8968 136.638 19.0138 138.298 21.8308C140.408 25.4108 145.235 26.3007 147.904 23.3197C147.904 23.9897 147.904 24.5797 147.904 25.1707C147.95 25.5832 147.906 26.001 147.772 26.3939C147.638 26.7869 147.418 27.1452 147.129 27.4432C146.84 27.7413 146.489 27.9715 146.1 28.1173C145.712 28.2632 145.295 28.3211 144.882 28.2868C144.077 28.316 143.283 28.0988 142.605 27.6641C141.927 27.2295 141.399 26.5982 141.09 25.8547C140.584 26.1947 140.128 26.4978 139.674 26.8048C138.159 27.8308 138.144 27.9907 139.428 29.3587C139.464 29.3967 139.504 29.4318 139.541 29.4688C140.284 30.1687 141.163 30.7072 142.125 31.0502C143.086 31.3932 144.108 31.5333 145.127 31.4617C145.991 31.4894 146.852 31.3398 147.656 31.022C148.46 30.7043 149.191 30.2252 149.803 29.6142C150.416 29.0032 150.896 28.2734 151.215 27.4696C151.534 26.6658 151.685 25.8052 151.659 24.9407C151.659 20.5754 151.658 16.2088 151.654 11.8408C151.653 11.1708 151.952 10.2557 151.531 9.89473ZM147.938 15.9198C147.921 16.3628 147.938 16.8077 147.938 17.2517C147.938 17.6957 147.943 18.1398 147.938 18.5838C147.991 19.227 147.831 19.87 147.484 20.4141C147.137 20.9581 146.62 21.3732 146.014 21.5957C145.385 21.8624 144.692 21.9383 144.02 21.8139C143.348 21.6894 142.728 21.3701 142.237 20.8958C140.447 19.2678 140.457 14.8447 142.445 13.3807C142.954 12.9659 143.569 12.7027 144.221 12.6212C144.873 12.5396 145.534 12.6431 146.13 12.9198C146.717 13.1543 147.211 13.5743 147.538 14.1159C147.864 14.6575 148.005 15.291 147.938 15.9198Z" fill="#101419"/>
<path id="Path 669" d="M69.5824 10.2145C69.5824 9.79653 69.4028 9.75053 69.0658 9.76153C68.4908 9.78053 67.9158 9.76653 67.3398 9.76653C66.1018 9.76653 66.1026 9.76651 66.0346 10.9965C66.0346 11.0245 65.9638 11.0485 65.9228 11.0765C65.6339 10.7794 65.3277 10.4996 65.0058 10.2385C62.9008 8.71352 59.4927 9.16254 57.5297 11.0995C54.6437 13.9485 54.5374 18.8365 56.2294 21.7805C58.3834 25.5215 63.2787 26.2355 65.8827 23.2805C65.8827 24.1495 65.9109 24.8516 65.8769 25.5496C65.8831 26.145 65.6858 26.7247 65.3178 27.1927C64.9497 27.6608 64.4325 27.9892 63.8524 28.1235C63.1633 28.3454 62.4258 28.3678 61.7245 28.188C61.0232 28.0082 60.3869 27.6336 59.8896 27.1075C59.5306 26.7455 59.4246 25.9716 58.9316 26.0076C58.4546 26.0446 58.0125 26.5525 57.5595 26.8605C56.0485 27.8855 56.0338 28.0606 57.3178 29.3956C57.3538 29.4336 57.3916 29.4685 57.4296 29.5055C58.2479 30.2625 59.2239 30.829 60.287 31.1642C61.3502 31.4995 62.474 31.5952 63.5785 31.4445C65.153 31.3952 66.6486 30.744 67.7572 29.625C68.8658 28.506 69.5029 27.0044 69.5375 25.4296C69.6385 20.3596 69.5664 15.2865 69.5824 10.2145ZM65.9174 17.1796H65.9076C65.9076 17.7276 65.9378 18.2795 65.9018 18.8245C65.9039 19.445 65.7094 20.0502 65.3461 20.5533C64.9828 21.0563 64.4695 21.4314 63.8798 21.6246C63.2715 21.8778 62.6021 21.9464 61.955 21.822C61.3079 21.6975 60.7116 21.3854 60.2406 20.9246C58.3406 19.1246 58.3694 15.1445 60.2914 13.4695C60.7873 13.0164 61.406 12.7193 62.0697 12.6157C62.7335 12.512 63.4133 12.6062 64.0238 12.8865C64.6309 13.1132 65.1461 13.5339 65.4897 14.0834C65.8332 14.6329 65.9858 15.2805 65.9237 15.9255C65.9077 16.3435 65.9174 16.7616 65.9174 17.1796Z" fill="#101419"/>
<path id="Path 670" d="M102.683 13.9636C102.348 12.782 101.677 11.7227 100.753 10.9133C99.8292 10.1039 98.6909 9.57895 97.4753 9.40166C96.5379 9.21697 95.5684 9.28246 94.6643 9.5916C93.7602 9.90075 92.9535 10.4426 92.3254 11.1626C92.3107 10.9592 92.3107 10.755 92.3254 10.5516C92.4474 9.88862 92.1756 9.69364 91.5256 9.75164C90.847 9.80555 90.1652 9.80555 89.4866 9.75164C88.9486 9.71464 88.7864 9.85862 88.7864 10.4266C88.8077 17.0706 88.8077 23.7146 88.7864 30.3586C88.7864 30.8866 88.8866 31.1097 89.4656 31.0687C90.1975 31.0045 90.9334 31.0045 91.6653 31.0687C92.3973 31.1457 92.5117 30.8576 92.5007 30.2026C92.4597 27.9416 92.4846 25.6796 92.4846 23.3846C92.6046 23.4326 92.6637 23.4377 92.6897 23.4697C94.6797 25.9357 99.3313 25.6446 101.475 22.7256C102.407 21.4891 103.007 20.0351 103.218 18.5016C103.429 16.9681 103.245 15.406 102.683 13.9636ZM98.1223 20.9736C97.632 21.4339 97.0153 21.737 96.3513 21.8439C95.6873 21.9508 95.0068 21.8567 94.3967 21.5737C93.8169 21.3549 93.3209 20.9585 92.9797 20.4411C92.6385 19.9237 92.4691 19.3118 92.4963 18.6926C92.4823 18.1926 92.4963 17.7007 92.4963 17.2037C92.4963 16.7857 92.4963 16.3676 92.4963 15.9496C92.4438 15.2663 92.6203 14.5849 92.9978 14.0129C93.3753 13.4409 93.9323 13.0109 94.5813 12.7906C95.2529 12.5636 95.976 12.5362 96.6628 12.7118C97.3497 12.8873 97.9711 13.2583 98.4514 13.7797C100.049 15.5867 99.9023 19.3536 98.1223 20.9726V20.9736Z" fill="#101419"/>
</g>
</g>
</svg>
