<svg width="113" height="30" viewBox="0 0 113 30" fill="none" xmlns="http://www.w3.org/2000/svg">
<g id="Clearbit">
<path id="Path 646" d="M24.8678 29.5408H5.69153C4.3839 29.5369 3.1313 29.0157 2.20667 28.091C1.28203 27.1664 0.760426 25.9135 0.75647 24.6059V5.42986C0.76069 4.1224 1.28206 2.86972 2.20667 1.9453C3.13127 1.02088 4.38407 0.499805 5.69153 0.49585H24.8678C26.1752 0.499806 27.4277 1.02091 28.3522 1.94536C29.2766 2.86981 29.7979 4.12249 29.8019 5.42986V24.6059C29.8028 25.2541 29.6755 25.8961 29.4279 26.4951C29.1802 27.0941 28.8169 27.6384 28.3585 28.0968C27.9002 28.5551 27.356 28.9185 26.757 29.1662C26.1579 29.4138 25.516 29.5408 24.8678 29.5399" fill="#8989A2"/>
<path id="Path 647" d="M24.8667 0.47879H15.2788V15.0008H29.8008V5.41278C29.7997 4.10426 29.2793 2.84964 28.354 1.92438C27.4287 0.999115 26.1742 0.478843 24.8657 0.477783" fill="#A0A0BD"/>
<path id="Path 648" d="M15.2788 29.5408H24.8667C26.1743 29.5369 27.4274 29.0157 28.3521 28.091C29.2767 27.1664 29.7978 25.9135 29.8018 24.6058V15.0178H15.2798L15.2788 29.5408Z" fill="#BCBCD8"/>
<g id="Group 24">
<path id="Path 649" d="M55.2669 19.0826C55.3198 19.0835 55.3719 19.0951 55.4202 19.1168C55.4685 19.1384 55.5118 19.1697 55.5477 19.2087L56.285 20.0137C55.7165 20.6734 55.0095 21.1999 54.2147 21.5557C53.2876 21.9471 52.2875 22.1356 51.2816 22.1086C50.3475 22.1217 49.4209 21.9451 48.5569 21.5897C47.7656 21.2599 47.0545 20.7636 46.472 20.1347C45.88 19.4836 45.4246 18.7201 45.1336 17.8897C44.8075 16.9649 44.6463 15.9901 44.6575 15.0097C44.6462 14.0262 44.8194 13.0494 45.1678 12.1297C45.4861 11.29 45.9729 10.5243 46.598 9.87966C47.2237 9.24503 47.9746 8.74809 48.8035 8.42066C49.7065 8.0662 50.67 7.88994 51.64 7.90165C52.544 7.87958 53.4427 8.04118 54.2825 8.37665C55.0119 8.68614 55.6804 9.12295 56.2567 9.66666L55.6458 10.5297C55.6035 10.5913 55.5509 10.6454 55.4905 10.6897C55.4152 10.7364 55.3271 10.7585 55.2386 10.7527C55.1425 10.7489 55.05 10.7169 54.972 10.6607C54.878 10.5987 54.766 10.5237 54.638 10.4327C54.51 10.3417 54.356 10.2457 54.181 10.1417C53.983 10.0271 53.7755 9.92969 53.5609 9.85065C53.2897 9.75139 53.0108 9.67513 52.7269 9.62266C52.3656 9.55741 51.9987 9.52661 51.6317 9.53066C50.9324 9.52215 50.2383 9.65232 49.5897 9.91366C48.9847 10.1592 48.4391 10.5311 47.9896 11.0047C47.5278 11.5026 47.1731 12.0901 46.9476 12.7307C46.6897 13.4624 46.5631 14.2339 46.5735 15.0097C46.5611 15.7983 46.6877 16.583 46.9476 17.3277C47.1705 17.9629 47.5169 18.5477 47.9666 19.0487C48.3907 19.5136 48.9124 19.8792 49.494 20.1197C50.0963 20.3682 50.7422 20.4937 51.3939 20.4887C51.7668 20.4912 52.1392 20.4668 52.5086 20.4157C52.8213 20.3715 53.1286 20.2951 53.4256 20.1877C53.7014 20.087 53.9649 19.9551 54.2108 19.7947C54.4689 19.6246 54.7135 19.4351 54.9427 19.2277C55.029 19.1408 55.1447 19.0892 55.2669 19.0826Z" fill="#8989A2"/>
<path id="Path 650" d="M60.4055 7.6687V21.9527H58.6799V7.6687H60.4055Z" fill="#8989A2"/>
<path id="Path 651" d="M67.3407 11.9746C67.8982 11.9702 68.4512 12.072 68.9706 12.2746C69.4563 12.4641 69.8961 12.7549 70.2606 13.1276C70.6366 13.5224 70.9259 13.9914 71.1097 14.5046C71.3202 15.1041 71.4216 15.7364 71.4095 16.3716C71.4258 16.557 71.396 16.7436 71.3226 16.9146C71.2841 16.9639 71.2335 17.0023 71.1757 17.0261C71.1178 17.0499 71.0546 17.0584 70.9926 17.0506H64.4559C64.4575 17.5999 64.5424 18.1458 64.7079 18.6696C64.8428 19.0915 65.0604 19.4822 65.3485 19.8186C65.6131 20.1214 65.9457 20.3575 66.3187 20.5076C66.72 20.6645 67.1477 20.7419 67.5785 20.7356C67.9576 20.7434 68.3358 20.6928 68.6996 20.5856C68.9777 20.4997 69.2484 20.391 69.5087 20.2606C69.7036 20.1624 69.8931 20.0539 70.0765 19.9356C70.1903 19.8494 70.3264 19.7973 70.4686 19.7856C70.5333 19.7828 70.5977 19.7965 70.6556 19.8254C70.7135 19.8543 70.763 19.8973 70.7997 19.9506L71.2836 20.5806C71.0651 20.844 70.807 21.0714 70.5179 21.2546C70.2185 21.4465 69.8984 21.6041 69.5638 21.7246C69.2218 21.8479 68.8692 21.9403 68.5106 22.0006C68.1552 22.0615 67.7956 22.0923 67.4349 22.0926C66.7933 22.0994 66.1559 21.9826 65.5585 21.7486C64.9959 21.5255 64.4894 21.1813 64.0746 20.7406C63.6396 20.266 63.3078 19.7062 63.1005 19.0966C62.8564 18.3721 62.7388 17.6111 62.7518 16.8466C62.7463 16.1933 62.8528 15.5439 63.0668 14.9266C63.2626 14.3555 63.5708 13.8294 63.9735 13.3796C64.3755 12.9373 64.8683 12.5867 65.4179 12.3516C66.0256 12.0935 66.6805 11.9651 67.3407 11.9746ZM67.3798 13.2456C67.0199 13.2257 66.6596 13.2794 66.3212 13.4036C65.9828 13.5277 65.6731 13.7197 65.4115 13.9676C64.9014 14.5175 64.5878 15.2207 64.5189 15.9676H69.8627C69.8667 15.5945 69.8109 15.2231 69.6976 14.8676C69.596 14.5501 69.4311 14.2565 69.2128 14.0046C68.9977 13.7613 68.7306 13.5693 68.4315 13.4426C68.098 13.3056 67.7402 13.2386 67.3798 13.2456Z" fill="#8989A2"/>
<path id="Path 652" d="M80.8275 21.9527H80.0604C79.9209 21.9584 79.7821 21.9317 79.6546 21.8747C79.5977 21.8393 79.5497 21.791 79.515 21.7336C79.4802 21.6763 79.4595 21.6116 79.4544 21.5447L79.2616 20.6327C79.0029 20.8654 78.7507 21.074 78.5047 21.2587C78.263 21.4403 78.0025 21.5962 77.7284 21.7237C77.4513 21.8519 77.1607 21.9479 76.8617 22.0097C76.525 22.0782 76.1823 22.1117 75.8387 22.1097C75.4755 22.1121 75.1139 22.0578 74.7674 21.9487C74.4482 21.8491 74.1531 21.685 73.8998 21.4667C73.6465 21.2427 73.4456 20.9654 73.3123 20.6547C73.159 20.2866 73.085 19.8904 73.0946 19.4917C73.0964 19.0948 73.207 18.7061 73.4144 18.3677C73.6714 17.9656 74.0267 17.6355 74.4466 17.4087C75.0315 17.0888 75.6604 16.8576 76.3133 16.7227C77.241 16.5283 78.1879 16.4385 79.1356 16.4547V15.6837C79.1796 15.0637 79.0061 14.4478 78.6454 13.9417C78.4648 13.7391 78.2405 13.5806 77.9891 13.4783C77.7377 13.3761 77.4664 13.3327 77.1956 13.3517C76.835 13.3421 76.4755 13.3962 76.1336 13.5117C75.8729 13.6052 75.6225 13.7255 75.3866 13.8707C75.1766 14.004 74.9956 14.1237 74.8436 14.2297C74.7139 14.3285 74.5564 14.3845 74.3934 14.3897C74.2842 14.3923 74.1774 14.36 74.0877 14.2977C74.0019 14.2386 73.9307 14.1606 73.8797 14.0697L73.5677 13.5167C74.0736 13.0182 74.6693 12.6201 75.3236 12.3437C75.9862 12.0783 76.6948 11.9464 77.4085 11.9557C77.9098 11.9465 78.4076 12.0387 78.8724 12.2267C79.2828 12.3962 79.6507 12.6544 79.9496 12.9827C80.2492 13.3229 80.4736 13.7227 80.6078 14.1557C80.7617 14.6451 80.8369 15.1557 80.8314 15.6687L80.8275 21.9527ZM76.3475 20.8957C76.6282 20.8985 76.9082 20.8676 77.1815 20.8037C77.4285 20.7444 77.6677 20.6565 77.8944 20.5417C78.1213 20.4262 78.3362 20.2882 78.5355 20.1297C78.7486 19.9601 78.9492 19.7753 79.1356 19.5767V17.5497C78.4568 17.5405 77.7787 17.591 77.1087 17.7007C76.6417 17.7752 76.1854 17.9079 75.7513 18.0957C75.4522 18.2193 75.1901 18.4177 74.9896 18.6717C74.833 18.8868 74.7495 19.1466 74.7523 19.4127C74.7467 19.6434 74.79 19.8727 74.8788 20.0857C74.9549 20.2642 75.0711 20.4226 75.2186 20.5487C75.3644 20.6713 75.535 20.761 75.7186 20.8117C75.923 20.8688 76.1343 20.8971 76.3465 20.8957H76.3475Z" fill="#8989A2"/>
<path id="Path 653" d="M83.4465 21.9527V12.1297H84.4358C84.574 12.115 84.7124 12.1532 84.8235 12.2367C84.909 12.3417 84.96 12.4706 84.9695 12.6057L85.0857 14.1377C85.3739 13.5165 85.8001 12.9693 86.3318 12.5377C86.8291 12.152 87.4433 11.9484 88.0725 11.9607C88.3212 11.9578 88.5695 11.9887 88.8098 12.0527C89.0236 12.1119 89.2288 12.1983 89.4207 12.3097L89.1975 13.5997C89.1854 13.6696 89.1487 13.7327 89.0935 13.7773C89.0383 13.8218 88.9686 13.8447 88.8977 13.8417C88.755 13.8311 88.6146 13.8001 88.4807 13.7497C88.2249 13.6795 87.9597 13.6485 87.6946 13.6577C87.1447 13.6397 86.6078 13.8264 86.1877 14.1817C85.7349 14.6022 85.3876 15.1237 85.1746 15.7037V21.9587L83.4465 21.9527Z" fill="#8989A2"/>
<path id="Path 654" d="M91.3217 21.9527V7.6687H93.0566V13.5457C93.4505 13.0845 93.9248 12.6986 94.4565 12.4067C95.0131 12.1116 95.6357 11.9629 96.2656 11.9747C96.7965 11.9669 97.3226 12.0762 97.8066 12.2947C98.2705 12.5116 98.6741 12.8397 98.9809 13.2497C99.3273 13.7213 99.5803 14.2544 99.7275 14.8207C99.9123 15.5248 100.001 16.2508 99.9897 16.9787C99.9956 17.6636 99.8975 18.3453 99.6987 19.0007C99.5237 19.5885 99.2391 20.1378 98.8598 20.6197C98.4982 21.0723 98.0415 21.4396 97.5219 21.6957C96.9674 21.9638 96.3575 22.0984 95.7416 22.0887C95.1813 22.1057 94.6261 21.9786 94.1288 21.7197C93.6734 21.4635 93.2778 21.113 92.9687 20.6917L92.8818 21.5837C92.8701 21.691 92.8169 21.7895 92.7338 21.8584C92.6507 21.9273 92.5445 21.9611 92.437 21.9527H91.3217ZM95.7045 13.3527C95.185 13.3414 94.6726 13.4758 94.2255 13.7407C93.7702 14.0303 93.3739 14.4036 93.0576 14.8407V19.5927C93.3188 19.9762 93.6744 20.2861 94.0898 20.4927C94.4876 20.6714 94.9198 20.7608 95.3559 20.7547C95.7614 20.7766 96.1661 20.6988 96.5346 20.5282C96.9031 20.3575 97.2241 20.0992 97.4697 19.7757C98.0105 18.9487 98.2689 17.9689 98.2065 16.9827C98.2157 16.4282 98.1587 15.8746 98.0366 15.3337C97.9475 14.929 97.7814 14.5453 97.5468 14.2037C97.3485 13.9214 97.077 13.6985 96.7617 13.5587C96.4264 13.4163 96.0649 13.3458 95.7006 13.3517L95.7045 13.3527Z" fill="#8989A2"/>
<path id="Path 655" d="M104.412 9.05071C104.414 9.21286 104.38 9.37341 104.312 9.52071C104.244 9.66471 104.153 9.79598 104.041 9.90871C103.928 10.0219 103.794 10.1125 103.648 10.1757C103.498 10.2418 103.336 10.2758 103.172 10.2757C103.01 10.2764 102.85 10.2423 102.702 10.1757C102.557 10.1119 102.425 10.0213 102.314 9.90871C102.201 9.7972 102.11 9.66561 102.046 9.52071C101.98 9.37285 101.945 9.21268 101.946 9.05071C101.946 8.88559 101.98 8.72228 102.046 8.57072C102.108 8.42123 102.199 8.28536 102.314 8.17072C102.425 8.05827 102.557 7.96771 102.702 7.90372C102.85 7.83726 103.01 7.80316 103.172 7.80372C103.336 7.80372 103.498 7.83778 103.648 7.90372C103.794 7.96712 103.928 8.05772 104.041 8.17072C104.155 8.28656 104.246 8.42209 104.312 8.57072C104.379 8.72173 104.413 8.88541 104.412 9.05071ZM104.025 12.1347V21.9577H102.297V12.1347H104.025Z" fill="#8989A2"/>
<path id="Path 656" d="M110.046 22.1077C109.719 22.1291 109.391 22.0824 109.083 21.9705C108.775 21.8586 108.494 21.684 108.257 21.4577C107.809 20.9407 107.584 20.2678 107.631 19.5857V13.5737H106.448C106.352 13.5766 106.258 13.5438 106.185 13.4817C106.148 13.4447 106.119 13.3999 106.1 13.3505C106.082 13.3011 106.075 13.2482 106.079 13.1957V12.5077L107.688 12.3077L108.089 9.27268C108.099 9.18025 108.144 9.09518 108.215 9.03468C108.291 8.97164 108.387 8.93888 108.486 8.94268H109.36V12.3277H112.173V13.5787H109.361V19.4787C109.347 19.6444 109.367 19.8112 109.418 19.9693C109.47 20.1274 109.552 20.2737 109.66 20.3997C109.763 20.5 109.884 20.5783 110.017 20.6299C110.151 20.6815 110.293 20.7052 110.436 20.6997C110.596 20.7031 110.755 20.6783 110.906 20.6267C111.025 20.5844 111.14 20.5309 111.249 20.4667C111.347 20.408 111.429 20.3547 111.496 20.3067C111.548 20.2647 111.611 20.2392 111.677 20.2337C111.728 20.238 111.777 20.2555 111.82 20.2844C111.862 20.3133 111.896 20.3526 111.919 20.3987L112.419 21.2227C112.107 21.51 111.742 21.7326 111.344 21.8777C110.928 22.0323 110.489 22.1102 110.046 22.1077Z" fill="#8989A2"/>
</g>
</g>
</svg>
