<svg width="27" height="18" viewBox="0 0 27 18" fill="none" xmlns="http://www.w3.org/2000/svg">
<path id="Icon awesome-eye" d="M26.232 8.34702C25.0487 5.97799 23.2331 3.9825 20.986 2.58134C18.739 1.18019 16.1481 0.42801 13.5 0.40802C10.852 0.428235 8.26124 1.18051 6.01421 2.58164C3.76719 3.98276 1.95151 5.97813 0.768028 8.34702C0.665726 8.54949 0.612427 8.77317 0.612427 9.00002C0.612427 9.22687 0.665726 9.45055 0.768028 9.65302C1.95133 12.0221 3.76696 14.0175 6.01403 15.4187C8.26109 16.8198 10.852 17.572 13.5 17.592C16.148 17.5718 18.7388 16.8195 20.9858 15.4184C23.2329 14.0173 25.0485 12.0219 26.232 9.65302C26.3343 9.45055 26.3876 9.22687 26.3876 9.00002C26.3876 8.77317 26.3343 8.54949 26.232 8.34702ZM13.5 15.447C12.2255 15.447 10.9796 15.0691 9.91993 14.361C8.86022 13.6529 8.03428 12.6465 7.54655 11.469C7.05882 10.2915 6.9312 8.99587 7.17985 7.74586C7.42849 6.49584 8.04222 5.34763 8.94343 4.44642C9.84464 3.54521 10.9929 2.93148 12.2429 2.68284C13.4929 2.4342 14.7886 2.56181 15.966 3.04954C17.1435 3.53727 18.1499 4.36321 18.858 5.42292C19.5661 6.48264 19.944 7.72852 19.944 9.00302C19.9432 10.7116 19.264 12.3498 18.0556 13.5577C16.8472 14.7655 15.2086 15.444 13.5 15.444V15.447ZM13.5 4.70702C13.1164 4.71247 12.7353 4.76966 12.367 4.87702C12.6714 5.2894 12.8177 5.79728 12.7794 6.30837C12.7411 6.81946 12.5207 7.29985 12.1583 7.66226C11.7959 8.02466 11.3155 8.24504 10.8044 8.28335C10.2933 8.32166 9.78541 8.17535 9.37303 7.87102C9.13812 8.73623 9.18045 9.65332 9.49405 10.4932C9.80765 11.3331 10.3767 12.0535 11.1212 12.5531C11.8657 13.0526 12.7481 13.3061 13.6441 13.2779C14.5402 13.2497 15.4049 12.9412 16.1165 12.3958C16.8281 11.8505 17.3507 11.0957 17.6109 10.2377C17.871 9.37976 17.8556 8.46182 17.5667 7.6131C17.2779 6.76437 16.7302 6.0276 16.0006 5.50646C15.2711 4.98533 14.3966 4.70608 13.5 4.70802V4.70702Z" fill="#722ED1"/>
</svg>
