<svg width="86" height="30" viewBox="0 0 86 30" fill="none" xmlns="http://www.w3.org/2000/svg">
<g id="Mine">
<g id="Group 26">
<path id="Fill 1" fill-rule="evenodd" clip-rule="evenodd" d="M21.5626 16.8214C21.483 17.0366 21.4618 17.269 21.5012 17.4951C21.5405 17.7211 21.639 17.9327 21.7866 18.1084C21.9552 18.2373 22.15 18.3278 22.3573 18.3734C22.5646 18.419 22.7794 18.4186 22.9866 18.3724C23.8138 18.1919 24.6708 18.1977 25.4956 18.3894C25.7067 18.481 25.8953 18.6176 26.0481 18.7897C26.201 18.9618 26.3144 19.1653 26.3804 19.3858C26.4464 19.6063 26.4634 19.8385 26.4303 20.0663C26.3971 20.2941 26.3146 20.5118 26.1886 20.7044C25.8599 21.2466 25.452 21.7367 24.9786 22.1584C23.473 23.9078 22.1514 25.8075 21.0346 27.8274C20.5416 28.6274 19.8886 29.6934 18.8506 29.7994C18.3823 29.8669 17.9059 29.7552 17.5165 29.4866C17.1271 29.2179 16.8536 28.8121 16.7506 28.3504C16.6096 27.3714 17.5566 26.4374 18.2026 25.7944C18.6566 25.3404 19.0806 24.8724 19.5026 24.3844C19.9956 23.8204 20.4616 23.2584 20.9026 22.6594C21.4176 21.9594 22.2736 20.8134 21.6416 19.9484C21.1836 19.3124 20.2096 19.4234 19.5736 19.6774C18.7633 20.0602 18.0672 20.6483 17.5546 21.3834C16.9962 22.2082 16.4866 23.065 16.0286 23.9494C15.67 24.68 15.1531 25.3216 14.5156 25.8274C14.1892 26.0389 13.795 26.1197 13.4117 26.0535C13.0284 25.9874 12.6841 25.7791 12.4476 25.4704C12.2644 25.0887 12.1905 24.6638 12.2339 24.2427C12.2773 23.8216 12.4364 23.4207 12.6936 23.0844C13.0905 22.4968 13.5547 21.9575 14.0766 21.4774C14.8576 20.6774 15.6496 19.8824 16.4086 19.0594C16.7886 18.6374 17.1656 18.2214 17.5086 17.7874C17.8196 17.3874 18.2876 16.8634 18.1496 16.3084C17.8886 15.2634 16.2366 15.6424 15.5616 15.9734C14.611 16.5186 13.7687 17.2338 13.0766 18.0834C12.3231 18.9539 11.6352 19.8791 11.0186 20.8514C9.71256 22.7984 8.50656 24.8254 7.15856 26.7424C6.59656 27.5424 5.92656 28.5094 4.89856 28.7144C4.65108 28.7666 4.39535 28.7657 4.14823 28.7118C3.90111 28.6579 3.66821 28.5523 3.46488 28.4019C3.26155 28.2515 3.0924 28.0597 2.96859 27.8391C2.84478 27.6186 2.7691 27.3743 2.74656 27.1224C2.73972 26.2125 3.07402 25.333 3.68356 24.6574C4.15023 24.0507 4.6269 23.4534 5.11356 22.8654C6.41356 21.2924 7.72356 19.7174 9.05756 18.1824C10.1886 16.8664 11.2756 15.5204 12.3386 14.1374C12.9386 13.3434 13.5516 12.5624 14.1036 11.7374C14.5766 10.9222 15.1854 10.1938 15.9036 9.58339C16.2091 9.32105 16.5894 9.16137 16.9906 9.12692C17.3918 9.09246 17.7938 9.18498 18.1396 9.39139C18.9726 10.0374 18.5616 11.2354 18.2156 12.0194C17.8696 12.8034 17.5376 13.7894 18.5316 14.1664C19.2316 14.4374 20.0106 14.2204 20.6956 14.5664C21.0799 14.7836 21.3771 15.1273 21.5366 15.539C21.6962 15.9507 21.7082 16.4049 21.5706 16.8244" fill="#8989A2"/>
</g>
<g id="Group 27">
<path id="Fill 4" fill-rule="evenodd" clip-rule="evenodd" d="M7.69758 16.8853C9.32201 14.5261 11.0827 12.2635 12.9706 10.1093C14.5656 8.29231 16.2486 6.55231 17.9006 4.78031C18.558 4.15921 18.9611 3.31595 19.0316 2.41431C19.0471 2.194 19.0162 1.9729 18.9409 1.76529C18.8655 1.55768 18.7475 1.3682 18.5943 1.20909C18.4411 1.04998 18.2563 0.924802 18.0517 0.84164C17.8471 0.758477 17.6273 0.719187 17.4066 0.72631C16.9412 0.806514 16.4989 0.986949 16.1102 1.25511C15.7215 1.52327 15.3958 1.87274 15.1556 2.27931C14.5176 3.09631 13.9706 3.97831 13.3976 4.83631C12.8506 5.64731 12.2346 6.40431 11.6526 7.19031C11.0116 8.06531 10.3906 8.96031 9.68058 9.77331C9.12858 10.3973 8.42058 11.5163 7.46257 11.4983C7.29185 11.491 7.12726 11.4325 6.99015 11.3305C6.85303 11.2285 6.74971 11.0877 6.69357 10.9263C6.62412 10.7173 6.61029 10.4937 6.65342 10.2777C6.69655 10.0617 6.79517 9.86065 6.93957 9.69431C7.38786 9.06527 7.88686 8.47396 8.43158 7.92631C9.00035 7.45702 9.48262 6.89183 9.85658 6.25631C9.99253 5.93842 10.0376 5.58903 9.98675 5.24705C9.9359 4.90506 9.79113 4.5839 9.56857 4.31931C9.43117 4.15204 9.2492 4.0271 9.04374 3.95896C8.83827 3.89083 8.6177 3.88228 8.40758 3.93431C7.91458 4.07731 7.57457 4.57231 7.17557 4.84631C6.90957 5.02631 6.35457 5.18931 6.18957 4.79231C6.02457 4.39531 6.51757 4.00631 6.73457 3.78431C7.33457 3.16531 8.39758 2.52631 8.45858 1.57831C8.46435 1.35415 8.41394 1.1321 8.31195 0.932405C8.20996 0.732706 8.05962 0.561699 7.87464 0.434962C7.68965 0.308226 7.4759 0.229787 7.25284 0.206793C7.02979 0.183798 6.80453 0.216978 6.59757 0.30331C5.72777 0.67071 4.998 1.30624 4.51458 2.11731C4.04857 2.77831 3.23757 3.93631 3.54557 4.78931C3.62127 4.97429 3.74695 5.13456 3.90855 5.25218C4.07014 5.3698 4.26128 5.44013 4.46058 5.45531C4.88457 5.52231 5.47157 5.29031 5.84358 5.53931C6.68857 6.10631 5.65357 7.46431 5.27157 8.00431C4.67792 8.82923 4.01771 9.60415 3.29757 10.3213C2.54358 11.0803 1.70557 11.8003 1.02757 12.6213C0.715065 12.9233 0.509793 13.3192 0.443002 13.7487C0.37621 14.1781 0.451557 14.6176 0.657575 15.0003C0.794365 15.1836 0.971753 15.3327 1.17583 15.436C1.37991 15.5393 1.60514 15.5939 1.83385 15.5955C2.06256 15.5972 2.28855 15.5458 2.4941 15.4455C2.69964 15.3452 2.87916 15.1986 3.01857 15.0173C3.56891 14.1881 4.17321 13.3961 4.82757 12.6463C4.97804 12.4886 5.16698 12.3727 5.3758 12.3101C5.58462 12.2475 5.80614 12.2403 6.01857 12.2893C6.12479 12.3291 6.22199 12.3898 6.30449 12.4676C6.38698 12.5455 6.45312 12.639 6.49903 12.7428C6.54494 12.8465 6.56969 12.9584 6.57185 13.0718C6.574 13.1852 6.55351 13.2979 6.51157 13.4033C6.11426 14.3343 5.50061 15.157 4.72157 15.8033C4.02157 16.5423 3.24257 17.1783 2.55957 17.9113C2.22799 18.229 1.96528 18.6115 1.78774 19.0351C1.61021 19.4586 1.52165 19.9141 1.52757 20.3733C1.54719 20.6071 1.62287 20.8326 1.74821 21.0309C1.87354 21.2292 2.04484 21.3943 2.24757 21.5123C2.65958 21.6677 3.10947 21.6925 3.53603 21.5832C3.96259 21.4738 4.34512 21.2358 4.63158 20.9013C5.55173 19.9452 6.36579 18.8924 7.05958 17.7613L7.69758 16.8853Z" fill="#8989A2"/>
</g>
<path id="Fill 7" fill-rule="evenodd" clip-rule="evenodd" d="M25.2396 4.18336C24.7466 4.69636 24.1996 5.16936 23.6986 5.66236C23.1976 6.15536 22.4666 6.91436 22.6986 7.68336C22.7658 7.84345 22.8713 7.9846 23.0058 8.09442C23.1402 8.20425 23.2996 8.27938 23.4699 8.31325C23.6402 8.34711 23.8162 8.33866 23.9825 8.28864C24.1488 8.23862 24.3002 8.14856 24.4236 8.02636C24.9926 7.53336 25.4736 6.75236 26.3386 6.97836C26.7015 7.12378 26.9953 7.40211 27.1601 7.75663C27.3249 8.11115 27.3483 8.51517 27.2256 8.88636C26.9693 9.61866 26.5093 10.2626 25.8996 10.7424C25.3037 11.3517 24.7762 12.0243 24.3266 12.7484C23.9716 13.3224 23.6016 13.9194 22.8476 13.9804C22.5046 13.9786 22.1728 13.8581 21.9086 13.6393C21.6444 13.4205 21.4642 13.117 21.3986 12.7804C21.3539 12.3721 21.405 11.9591 21.5478 11.574C21.6907 11.189 21.9214 10.8426 22.2216 10.5624C22.6216 10.0694 23.1116 9.31736 22.5126 8.76236C21.8616 8.16236 20.9666 8.57236 20.2946 8.86236C20.133 8.95753 19.9541 9.01972 19.7683 9.04534C19.5825 9.07096 19.3935 9.05949 19.2122 9.0116C19.0308 8.96371 18.8608 8.88034 18.7119 8.76633C18.563 8.65232 18.4381 8.50991 18.3446 8.34736C18.2058 8.01007 18.1619 7.64126 18.2176 7.28081C18.2732 6.92036 18.4264 6.58201 18.6606 6.30236C19.3186 5.35536 20.1966 4.57736 20.8786 3.63536C21.7486 2.47236 22.3356 0.591356 24.0926 0.729355C24.4534 0.769463 24.7971 0.904779 25.0885 1.12144C25.3798 1.3381 25.6083 1.62832 25.7506 1.96236C25.8828 2.3426 25.9051 2.75243 25.8149 3.14477C25.7247 3.53711 25.5256 3.89605 25.2406 4.18036" fill="#8989A2"/>
<path id="Fill 9" fill-rule="evenodd" clip-rule="evenodd" d="M32.6056 24.0092H35.7536V9.83722L41.4456 24.0092H42.5746L48.1626 9.84022V24.0092H51.6526V5.24822H47.0336L42.2076 18.0662L37.2776 5.26022H32.6056V24.0092ZM53.6856 24.0092H56.8606V10.2862H53.6856V24.0092ZM55.2336 8.03122C55.6561 8.01801 56.0611 7.85897 56.3798 7.58111C56.6984 7.30324 56.9111 6.92368 56.9817 6.50684C57.0522 6.09 56.9764 5.66157 56.767 5.29429C56.5576 4.92701 56.2276 4.6435 55.833 4.4919C55.4383 4.34029 55.0033 4.32992 54.6019 4.46256C54.2005 4.5952 53.8573 4.86267 53.6307 5.21956C53.4041 5.57645 53.3079 6.00078 53.3586 6.4205C53.4092 6.84023 53.6035 7.2295 53.9086 7.52222C54.0842 7.69131 54.292 7.82347 54.5195 7.9109C54.7471 7.99832 54.9899 8.03924 55.2336 8.03122ZM58.8916 24.0092H62.0666V15.9262C62.0317 15.4913 62.0908 15.0539 62.2399 14.6438C62.389 14.2337 62.6246 13.8605 62.9307 13.5495C63.2369 13.2386 63.6063 12.9971 64.014 12.8416C64.4217 12.6861 64.8581 12.6201 65.2936 12.6482C67.1816 12.6482 68.0226 13.5922 68.0226 15.6652V24.0092H71.1976V15.3812C71.1976 11.6022 69.2556 10.0022 66.4976 10.0022C65.6004 9.95022 64.7069 10.1543 63.9213 10.5908C63.1357 11.0272 62.4904 11.678 62.0606 12.4672V10.2862H58.8906L58.8916 24.0092ZM79.2766 24.2702C82.7916 24.2702 85.1256 22.6952 85.5766 19.8112H82.5126C82.2656 21.1472 81.2806 21.9112 79.3646 21.9112C77.0036 21.9112 75.6916 20.4322 75.5856 17.8442H85.6326V16.9272C85.6326 12.0192 82.5636 10.0002 79.1526 10.0002C75.2456 10.0002 72.3316 12.8322 72.3316 17.0842V17.2942C72.273 18.2238 72.4125 19.1551 72.741 20.0267C73.0694 20.8982 73.5792 21.6901 74.2366 22.3498C74.8941 23.0095 75.6842 23.522 76.5546 23.8534C77.425 24.1849 78.3559 24.3276 79.2856 24.2722L79.2766 24.2702ZM75.6286 15.7172C75.9486 13.5922 77.2356 12.3032 79.1486 12.3032C81.1206 12.3032 82.3236 13.3512 82.4816 15.7122L75.6286 15.7172Z" fill="#8989A2"/>
</g>
</svg>
