<svg width="88" height="30" viewBox="0 0 88 30" fill="none" xmlns="http://www.w3.org/2000/svg">
<g id="Shake">
<path id="Fill 30" fill-rule="evenodd" clip-rule="evenodd" d="M2.77277 28.2265H17.973C18.909 28.2649 19.8378 28.0464 20.6585 27.5946C21.4792 27.1428 22.1604 26.475 22.6287 25.6635C23.0648 24.8036 23.2361 23.8337 23.1209 22.8764C23.0057 21.9191 22.6093 21.0175 21.9818 20.2855L13.1756 9.71854C12.948 9.43966 12.8391 9.08275 12.8714 8.72426C12.9037 8.36577 13.0751 8.0342 13.3489 7.80054L22.3138 0.331543L23.45 1.55754L14.9266 8.97954L23.3856 19.1215C24.2191 20.1002 24.7545 21.2974 24.928 22.5711C25.1016 23.8448 24.9059 25.1416 24.3646 26.3075C23.7903 27.4528 22.8992 28.4086 21.7967 29.0611C20.6942 29.7136 19.427 30.0352 18.1468 29.9875L2.77374 30.0025C2.65788 30.0029 2.54302 29.9805 2.43585 29.9364C2.32868 29.8924 2.23134 29.8277 2.14923 29.7459C2.06712 29.6642 2.00186 29.567 1.95734 29.4601C1.91282 29.3531 1.89008 29.2384 1.88995 29.1225V29.1065C1.88995 28.9906 1.91287 28.8758 1.95734 28.7687C2.0018 28.6616 2.06662 28.5644 2.14874 28.4825C2.23087 28.4007 2.32862 28.3358 2.43585 28.2917C2.54309 28.2476 2.6578 28.2251 2.77374 28.2255" fill="#8989A2"/>
<path id="Fill 32" fill-rule="evenodd" clip-rule="evenodd" d="M2.58276 28.2417L18.0339 25.3957C18.4074 25.317 18.7538 25.1421 19.0388 24.8883C19.3239 24.6345 19.5376 24.3106 19.6589 23.9487C19.7856 23.5889 19.8155 23.2023 19.7463 22.8272C19.6772 22.4521 19.5114 22.1017 19.2649 21.8107C15.6189 17.4237 11.989 13.0677 8.34302 8.66571C8.16559 8.45549 8.03988 8.20639 7.97681 7.93863C7.91373 7.67087 7.91479 7.39202 7.97974 7.12471C8.04378 6.85667 8.16986 6.60743 8.3479 6.39708C8.52594 6.18673 8.75087 6.02116 9.00464 5.91371L22.6106 0.0327148L23.0999 1.76271L10.1257 7.39171C10.0816 7.40643 10.0424 7.43278 10.012 7.46797C9.98152 7.50317 9.96109 7.5459 9.95288 7.59171C9.93979 7.63789 9.93844 7.68666 9.94946 7.73338C9.96049 7.78011 9.98351 7.82324 10.0159 7.8587C13.5669 12.1197 17.0859 16.3497 20.6389 20.6107C21.1153 21.1356 21.4392 21.7808 21.5754 22.4765C21.7117 23.1722 21.6551 23.8918 21.4119 24.5577C21.2057 25.2141 20.8251 25.8021 20.3108 26.2592C19.7965 26.7162 19.168 27.025 18.4919 27.1527L6.27563 29.4007L2.58276 28.2417Z" fill="#8989A2"/>
<path id="Fill 34" fill-rule="evenodd" clip-rule="evenodd" d="M23.0379 1.77774L7.58575 4.62373C7.20929 4.69527 6.85924 4.86765 6.57306 5.12248C6.28688 5.37732 6.07529 5.70506 5.96075 6.07074C5.83476 6.43066 5.80505 6.81723 5.87433 7.19221C5.94361 7.5672 6.10949 7.9176 6.35577 8.20874C10.0018 12.5957 13.6316 16.9517 17.2776 21.3387C17.4546 21.5524 17.5799 21.8043 17.6429 22.0745C17.7059 22.3447 17.7052 22.6258 17.6409 22.8957C17.5739 23.1625 17.4465 23.4103 17.2689 23.6203C17.0912 23.8302 16.868 23.9966 16.616 24.1067L3.00958 29.9877L2.52081 28.2577L15.4949 22.6287C15.5362 22.6095 15.573 22.5817 15.6028 22.5473C15.6327 22.5128 15.6547 22.4724 15.6678 22.4287C15.6774 22.3823 15.6767 22.3344 15.6658 22.2883C15.655 22.2421 15.6341 22.1989 15.6048 22.1617C7.9048 12.9317 11.7857 17.5707 4.98273 9.40973C4.5063 8.88481 4.18245 8.23963 4.0462 7.54396C3.90996 6.84829 3.96656 6.1286 4.20978 5.46274C4.41412 4.80516 4.79411 4.21589 5.3089 3.75856C5.82369 3.30123 6.45361 2.9932 7.13068 2.86774L22.4407 0.0217285L23.0379 1.77774Z" fill="#8989A2"/>
<path id="Fill 36" fill-rule="evenodd" clip-rule="evenodd" d="M22.8326 1.79365H7.63245C6.69867 1.75797 5.77306 1.97595 4.95325 2.42441C4.13344 2.87288 3.45028 3.53508 2.97669 4.34064C2.54695 5.20579 2.38062 6.17811 2.49866 7.13686C2.61671 8.09562 3.01399 8.99858 3.64075 9.73365L12.4479 20.3006C12.6767 20.5803 12.7853 20.9393 12.7496 21.2989C12.714 21.6585 12.5367 21.9893 12.2575 22.2186L3.3097 29.6876L2.17249 28.4616L10.6798 21.0396L2.23548 10.8976C1.40225 9.91884 0.86732 8.72159 0.693973 7.4479C0.520627 6.17421 0.716109 4.87753 1.25745 3.71165C1.82964 2.56866 2.71834 1.61415 3.81751 0.961737C4.91668 0.309325 6.18023 -0.0135185 7.45765 0.0316371L22.8307 0.0156459C23.0664 0.0140349 23.2935 0.105596 23.462 0.270407C23.6306 0.435217 23.7269 0.659924 23.7306 0.895636V0.911642C23.7272 1.14753 23.6306 1.3725 23.462 1.53753C23.2935 1.70255 23.0666 1.79425 22.8307 1.79264" fill="#8989A2"/>
<path id="Fill 38" fill-rule="evenodd" clip-rule="evenodd" d="M11.4676 22.8797L3.3089 29.6887L2.17169 28.4617L9.63702 21.9517L11.4676 22.8797Z" fill="#8989A2"/>
<path id="Fill 40" fill-rule="evenodd" clip-rule="evenodd" d="M14.0726 25.2065L3.00861 29.9865L2.51984 28.2565L13.1097 23.6655L14.0726 25.2065Z" fill="#8989A2"/>
<path id="Fill 42" fill-rule="evenodd" clip-rule="evenodd" d="M2.58276 28.2417L14.9568 25.9617L15.4299 27.7067L6.27563 29.4067L2.58276 28.2417Z" fill="#8989A2"/>
<path id="Fill 44" fill-rule="evenodd" clip-rule="evenodd" d="M2.77277 28.2256H15.5726C15.7181 28.8013 15.7925 29.3928 15.7938 29.9866L2.77277 30.0026C2.6569 30.003 2.54204 29.9805 2.43488 29.9365C2.32771 29.8924 2.23037 29.8277 2.14825 29.746C2.06614 29.6642 2.00088 29.5671 1.95636 29.4601C1.91184 29.3532 1.88911 29.2385 1.88898 29.1226V29.1066C1.88898 28.9906 1.9119 28.8758 1.95636 28.7687C2.00082 28.6617 2.06564 28.5644 2.14777 28.4826C2.22989 28.4007 2.32764 28.3359 2.43488 28.2918C2.54211 28.2477 2.65682 28.2252 2.77277 28.2256Z" fill="#8989A2"/>
<path id="Fill 46" fill-rule="evenodd" clip-rule="evenodd" d="M76.7002 20.8196C76.5757 20.5687 76.4331 20.327 76.2739 20.0966L73.101 15.0016L76.7011 9.4196L72.4238 9.40359C72.3128 9.43459 69.5509 14.1206 69.188 14.7186V5.15859C68.778 5.12759 65.9369 5.1116 65.5879 5.1746V20.8356C66.3299 20.8206 68.728 20.8666 69.188 20.8206L69.2041 15.5376C69.3141 15.6476 72.1401 20.5066 72.2661 20.8206L76.7002 20.8196ZM87.0229 16.0546C87.3713 14.594 87.1749 13.0565 86.4702 11.7306C85.831 10.6516 84.8118 9.84999 83.6128 9.4826C82.1775 9.01632 80.6214 9.09463 79.2402 9.7026C77.9969 10.2764 77.0015 11.2787 76.4365 12.5261C75.8715 13.7734 75.7744 15.1825 76.163 16.4956C76.857 19.2626 79.2092 20.6786 81.9072 20.9766C83.4115 21.166 84.939 21.01 86.374 20.5206V17.9576H83.438C82.4851 18.0067 81.5381 17.783 80.708 17.3126C80.4718 17.1776 80.2649 16.9968 80.0996 16.7807C79.9342 16.5647 79.8138 16.3178 79.7451 16.0546H87.0229ZM79.6508 13.6806C79.6557 13.4304 79.7114 13.1838 79.8144 12.9558C79.9174 12.7277 80.0655 12.5229 80.25 12.3539C80.4344 12.1848 80.6515 12.055 80.8877 11.9723C81.1238 11.8895 81.3743 11.8556 81.624 11.8726C81.8651 11.8569 82.1069 11.893 82.333 11.9784C82.559 12.0638 82.764 12.1966 82.9345 12.3678C83.105 12.5391 83.2368 12.7448 83.3213 12.9712C83.4057 13.1977 83.4406 13.4395 83.4238 13.6806H79.6508ZM57.934 12.3126C57.9971 12.3101 58.0603 12.3154 58.122 12.3286C59.338 12.3596 60.4902 12.8946 60.6162 14.0426C58.9797 13.8879 57.3298 14.1251 55.8032 14.7346C55.1314 15.0067 54.5781 15.5089 54.2426 16.1514C53.9072 16.7939 53.8113 17.5348 53.9721 18.2416C54.1382 19.0896 54.6117 19.8462 55.3022 20.3657C55.9927 20.8852 56.8511 21.131 57.7119 21.0556C58.3072 21.0929 58.9029 20.985 59.4472 20.7411C59.9916 20.4972 60.4684 20.1247 60.8369 19.6556L61.3901 20.8346H64.0727L64.0112 14.6706C63.9952 13.1606 63.9169 11.9976 63.0009 10.9596C61.5329 9.27759 59.0549 8.88359 56.7339 9.33959C56.0285 9.48582 55.3411 9.70742 54.6831 10.0006V12.3116L57.934 12.3126ZM60.6162 17.8476C60.2852 18.4296 57.8699 18.8856 57.5869 17.6476C57.2229 16.0126 60.1432 16.1066 60.6162 16.2636V17.8476ZM31.559 19.9546C31.659 20.1436 32.0171 20.2686 32.2231 20.3636C32.9709 20.6866 33.7638 20.8933 34.5742 20.9766C36.8312 21.2436 39.167 20.8346 40.351 18.8226C40.6213 18.3431 40.7722 17.8057 40.7915 17.2556C40.8108 16.7055 40.6978 16.1589 40.4619 15.6616C39.2939 13.4756 35.6801 13.8376 34.9531 13.1296C34.8623 13.0229 34.8148 12.8858 34.8208 12.7458C34.8267 12.6058 34.8853 12.4733 34.9848 12.3746C35.4931 12.0294 36.1155 11.8943 36.7212 11.9976H40.2089V10.2676C40.1149 10.0476 39.1671 9.70159 38.8681 9.59159C37.1916 9.02172 35.3701 9.04396 33.708 9.6546C33.2222 9.84258 32.7845 10.1362 32.4262 10.5143C32.0679 10.8923 31.7979 11.3453 31.6362 11.8404C31.4745 12.3356 31.425 12.8605 31.4912 13.3771C31.5573 13.8937 31.7378 14.3892 32.019 14.8276C33.028 16.1486 34.513 16.2426 36.249 16.6516C36.706 16.7616 37.4952 16.8876 37.4492 17.4226C37.3702 18.1616 35.887 18.2226 35.271 18.2406H31.562L31.559 19.9546ZM45.5112 13.2086C46.0274 12.6636 46.7349 12.3409 47.4848 12.3086C49.0948 12.2926 49.4257 13.3626 49.4257 14.5886L49.4101 15.5796V20.8316H53.0097C53.0247 18.5676 53.01 16.3186 53.041 14.0546C53.1501 12.9612 52.9817 11.8579 52.5517 10.8466C52.2013 10.2954 51.7085 9.8495 51.125 9.55616C50.5415 9.26282 49.8891 9.13303 49.2378 9.1806C48.5282 9.15312 47.8219 9.28906 47.1733 9.57792C46.5247 9.86679 45.9513 10.3009 45.497 10.8466V5.13859H41.8969V20.8316H45.497L45.5112 13.2086Z" fill="#8989A2"/>
</g>
</svg>
