<svg width="146" height="39" viewBox="0 0 146 39" fill="none" xmlns="http://www.w3.org/2000/svg">
<g id="Tonkean">
<path id="Path 671" d="M98.093 15.795L91.5378 21.952L98.6062 30.076C96.8552 30.076 95.3379 30.106 93.8239 30.046C93.5749 30.036 93.3092 29.657 93.1062 29.404C91.2982 27.161 89.5061 24.904 87.4861 22.697V30.005H83.7859V9.26001H87.4182V21.439L87.7068 21.596C88.1848 21.065 88.6578 20.529 89.1408 20.003C90.3678 18.669 91.585 17.325 92.841 16.018C93.1003 15.7287 93.4515 15.5377 93.8352 15.477C95.1712 15.415 96.5118 15.452 97.8508 15.452L98.093 15.795Z" fill="#8989A2"/>
<path id="Path 672" d="M131.398 30.096V15.523H134.898V17.48L135.272 17.749C135.296 17.5539 135.355 17.3647 135.446 17.19C136.164 16.2251 137.176 15.5186 138.33 15.1761C139.483 14.8336 140.717 14.8736 141.846 15.29C142.915 15.6717 143.836 16.3817 144.478 17.3185C145.119 18.2553 145.448 19.371 145.418 20.506C145.455 23.658 145.426 26.811 145.426 30.095C144.307 30.095 143.273 30.141 142.249 30.057C142.038 30.04 141.708 29.542 141.702 29.257C141.656 27.073 141.678 24.889 141.675 22.704C141.675 22.304 141.669 21.897 141.646 21.495C141.513 19.144 140.58 18.034 138.738 18.027C138.265 18.0071 137.793 18.0846 137.351 18.2547C136.909 18.4248 136.507 18.6838 136.17 19.0158C135.832 19.3477 135.566 19.7454 135.389 20.1842C135.211 20.6231 135.126 21.0938 135.138 21.567C135.045 24.017 135.054 26.473 135.101 28.925C135.119 29.834 134.891 30.206 133.934 30.111C133.111 30.031 132.274 30.096 131.398 30.096Z" fill="#8989A2"/>
<path id="Path 673" d="M70.03 30.0301H66.4568V15.5221H69.903C69.941 16.2081 69.9771 16.8531 70.0271 17.7331C70.4413 17.0186 71.0115 16.4068 71.695 15.9433C72.3786 15.4798 73.1578 15.1765 73.9748 15.0561C77.7098 14.6211 80.334 16.8501 80.427 20.6261C80.498 23.5141 80.4269 26.4051 80.4529 29.2941C80.4579 29.9091 80.2529 30.1311 79.6379 30.1061C78.7049 30.0681 77.7702 30.0961 76.6902 30.0961C76.6902 29.5821 76.6962 29.1601 76.6902 28.7381C76.6472 26.0541 76.6398 23.3691 76.5368 20.6871C76.5567 20.0878 76.365 19.5006 75.9953 19.0285C75.6256 18.5564 75.1015 18.2295 74.5149 18.1051C73.8492 17.8846 73.1283 17.8981 72.4714 18.1434C71.8145 18.3888 71.2612 18.8512 70.903 19.4541C70.3961 20.4253 70.1104 21.4965 70.0661 22.5911C69.9491 25.0391 70.03 27.4881 70.03 30.0301Z" fill="#8989A2"/>
<path id="Path 674" d="M40.4919 18.2701H38.0559V15.4841H40.675C40.675 13.7681 40.675 12.1711 40.675 10.5731C40.675 9.26812 40.6751 9.26811 41.9841 9.26611C44.3611 9.26611 44.36 9.26613 44.362 11.6221C44.362 12.7648 44.3684 13.9074 44.3811 15.0501C44.4055 15.175 44.4445 15.2965 44.4978 15.4121H48.154V18.2391H44.4328C44.4058 18.7091 44.366 19.0941 44.365 19.4791C44.365 21.3941 44.3359 23.3111 44.3899 25.2251C44.4429 27.0921 45.1611 27.6531 47.0261 27.4191C47.3211 27.3821 47.6198 27.3701 47.8918 27.3481C47.9368 27.4271 47.967 27.4561 47.968 27.4861C48.048 30.1961 48.7039 30.2861 45.4939 30.3491C42.2589 30.4141 40.7179 28.9141 40.6159 25.6851C40.5509 23.6031 40.5798 21.5191 40.5598 19.4361C40.5558 19.0761 40.5179 18.7181 40.4919 18.2701Z" fill="#8989A2"/>
<path id="Path 675" d="M27.8289 15.956C27.6469 16.111 27.5746 16.169 27.5066 16.232C27.2786 16.444 27.0513 16.6567 26.824 16.87C26.6149 16.6238 26.4372 16.3524 26.2957 16.062C26.0437 15.334 25.896 14.569 25.638 13.844C25.2002 12.3563 24.4434 10.9818 23.4207 9.81601C22.4207 12.208 22.4207 12.208 21.8997 12.463C21.716 10.9815 21.4555 9.51046 21.1189 8.056C20.7119 6.597 20.039 5.21201 19.429 3.65601L18.2371 5.76202C17.7201 4.53202 17.3658 3.48701 16.8528 2.52701C16.3983 1.47193 15.6223 0.587466 14.635 0C14.435 5.153 11.8779 8.83401 7.59988 10.152L7.06082 8.22202C5.70814 9.39383 4.7138 10.9239 4.19266 12.636C3.66666 14.283 3.29268 15.978 2.83768 17.68L2.23807 17.401C1.46883 19.1283 1.00137 20.9747 0.856719 22.86C0.194719 30.492 6.48904 37.913 13.781 38.003C17.0356 38.1609 20.2314 37.0938 22.7381 35.012C28.7431 29.878 29.1269 23.194 27.8289 15.956ZM20.5066 31.891C20.1958 31.9814 19.9097 32.1409 19.6692 32.3575C19.4287 32.5741 19.2402 32.8423 19.118 33.142C18.639 34.1287 17.8574 34.9369 16.8875 35.4489C15.9175 35.961 14.8098 36.1502 13.7249 35.989C12.6219 35.806 11.6162 35.2473 10.8782 34.4074C10.1402 33.5676 9.71567 32.4983 9.67605 31.381C9.62954 31.0137 9.44071 30.6791 9.15066 30.449C8.26235 29.9197 7.56558 29.1212 7.16141 28.1694C6.75723 27.2176 6.66659 26.1618 6.90262 25.155C7.06023 24.2032 7.50188 23.3211 8.16922 22.6243C8.83656 21.9276 9.6987 21.4485 10.6429 21.25C11.6151 20.9497 12.6595 20.9803 13.6126 21.3369C14.5656 21.6936 15.3737 22.3562 15.9099 23.221C15.9869 23.327 16.074 23.427 16.156 23.53L16.2556 23.247C17.5092 23.0243 18.7845 22.9458 20.0559 23.013C21.009 23.1833 21.8737 23.6776 22.5042 24.4124C23.1347 25.1471 23.4923 26.0771 23.5159 27.045C23.6213 28.072 23.3829 29.1049 22.8382 29.9819C22.2935 30.8588 21.4729 31.5303 20.5056 31.891H20.5066Z" fill="#8989A2"/>
<path id="Path 676" d="M113.574 22.39C113.53 18.49 111.253 15.672 107.683 15.09C103.604 14.42 99.7946 16.474 98.5926 20.072C97.0656 24.641 99.2577 29.672 104.881 30.395C107.948 30.789 110.672 30.195 112.871 27.617C112.317 27.3274 111.779 27.0075 111.26 26.659C110.993 26.4457 110.663 26.3273 110.322 26.3224C109.98 26.3176 109.647 26.4265 109.374 26.632C108.49 27.0976 107.527 27.394 106.535 27.506C105.993 27.572 105.443 27.5288 104.918 27.379C104.393 27.2291 103.903 26.9756 103.478 26.6335C103.052 26.2913 102.7 25.8674 102.441 25.3868C102.182 24.9062 102.021 24.3785 101.97 23.835H113.57C113.574 23.258 113.58 22.824 113.574 22.39ZM102.042 21.274C102.023 20.6727 102.179 20.0789 102.49 19.5643C102.801 19.0496 103.255 18.6362 103.797 18.374C104.457 17.9331 105.229 17.6901 106.023 17.6738C106.817 17.6575 107.599 17.8685 108.277 18.282C108.788 18.5869 109.203 19.0307 109.472 19.5616C109.742 20.0926 109.855 20.6891 109.8 21.282L102.042 21.274Z" fill="#8989A2"/>
<path id="Path 677" d="M128.698 19.6381C128.655 18.6293 128.267 17.666 127.598 16.9098C126.928 16.1536 126.019 15.6506 125.023 15.4851C123.39 15.178 121.72 15.1079 120.066 15.2771C118.412 15.4494 116.867 16.1844 115.689 17.3591L117.56 19.4761C117.944 19.2181 118.213 19.0191 118.498 18.8471C119.245 18.3253 120.108 17.9967 121.013 17.8906C121.917 17.7845 122.833 17.9042 123.68 18.2391C123.958 18.3196 124.217 18.4547 124.441 18.6366C124.666 18.8184 124.852 19.0432 124.989 19.2979C125.126 19.5526 125.211 19.8321 125.238 20.1199C125.266 20.4077 125.236 20.6981 125.149 20.9741C124.701 20.9991 124.235 21.0291 123.77 21.0521C121.353 21.1721 118.918 21.2641 116.77 22.5701C116.169 22.9126 115.667 23.4058 115.313 24.0011C114.96 24.5964 114.767 25.2734 114.755 25.9655C114.742 26.6577 114.91 27.3412 115.241 27.949C115.573 28.5567 116.057 29.0678 116.645 29.4321C117.94 30.2285 119.459 30.5823 120.972 30.4401C121.813 30.413 122.638 30.2095 123.395 29.8428C124.152 29.476 124.824 28.9541 125.366 28.3111C125.417 29.0111 125.452 29.4951 125.491 30.0311H129.036C128.937 26.5181 128.935 23.0701 128.698 19.6381ZM123.898 27.0381C123.261 27.4821 122.515 27.7446 121.74 27.7974C120.965 27.8503 120.19 27.6915 119.498 27.3381C119.238 27.2169 119.014 27.0283 118.85 26.7919C118.686 26.5555 118.588 26.2797 118.567 25.993C118.545 25.7063 118.6 25.4189 118.726 25.1606C118.853 24.9022 119.046 24.6822 119.285 24.5231C119.753 24.1451 120.304 23.8827 120.893 23.7571C122.293 23.5291 123.724 23.4411 125.247 23.2871C125.444 24.9371 125.141 26.2241 123.895 27.0341L123.898 27.0381Z" fill="#8989A2"/>
<path id="Path 678" d="M57.3539 15.0489C52.3149 14.9159 48.9219 17.9299 48.8319 22.6199C48.8187 24.7151 49.6381 26.7298 51.1102 28.2207C52.5824 29.7116 54.5868 30.5566 56.682 30.5699C58.7772 30.5832 60.7917 29.7636 62.2826 28.2914C63.7735 26.8192 64.6185 24.8151 64.6317 22.7199C64.6638 21.7368 64.5003 20.757 64.1508 19.8375C63.8013 18.9181 63.2731 18.0771 62.5961 17.3635C61.919 16.6499 61.1068 16.0779 60.2069 15.6805C59.3071 15.2832 58.3374 15.0685 57.3539 15.0489ZM60.6029 24.3969C60.489 24.9243 60.2685 25.4229 59.955 25.862C59.6414 26.3011 59.2415 26.6715 58.7797 26.9504C58.3178 27.2294 57.8035 27.411 57.2689 27.4842C56.7344 27.5573 56.1906 27.5205 55.6708 27.3759C53.7958 26.8899 52.605 25.0149 52.618 22.5699C52.636 19.3059 54.999 17.2799 57.89 18.0499C60.182 18.6599 61.3819 21.4669 60.6029 24.3969Z" fill="#8989A2"/>
<path id="Path 679" d="M17.3645 28.1131C17.7645 27.6801 18.0105 27.1961 18.3645 27.0921C18.5776 27.0486 18.798 27.0535 19.009 27.1065C19.22 27.1594 19.4164 27.2591 19.5837 27.3981C19.8527 27.6641 19.8456 28.2081 20.0066 28.8051L17.3645 28.1131Z" fill="#8989A2"/>
<path id="Path 680" d="M11.017 27.098C11.007 26.174 11.3918 25.68 12.2558 25.709C13.0558 25.736 13.4489 26.19 13.3559 27.098H11.017Z" fill="#8989A2"/>
</g>
</svg>
